# xmcd
#
# Track frame offsets: 
#        150
#        61200
#        78981
#        96952
#        136214
#        182030
#        203554
#
# Disc length: 3029 seconds
#
# Revision: 0
# Processed by: cddbd v1.5.2PL0 Copyright (c) Steve Scherf et al.
# Submitted via: ExactAudioCopyFreeDBPlugin 1.0
#
DISCID=550bd307
DTITLE=Greensky Bluegrass - Del Fest 2015 May 21, 2015 Disc 1
DYEAR=2015
DGENRE=Bluegrass
TTITLE0=Eyes Of The World
TTITLE1=Hit Parade Of Love
TTITLE2=Forget Everything
TTITLE3=Kerosene
TTITLE4=Bring Out Your Dead
TTITLE5=Middle Mountain Towns
TTITLE6=Windshield
EXTD=
EXTT0=
EXTT1=
EXTT2=
EXTT3=
EXTT4=
EXTT5=
EXTT6=
PLAYORDER=
